<?xml version="1.0" encoding="iso-8859-1"?>
<!-- Generator: Adobe Illustrator 19.0.0, SVG Export Plug-In . SVG Version: 6.00 Build 0)  -->
<svg version="1.1" id="Layer_1" xmlns="http://www.w3.org/2000/svg" xmlns:xlink="http://www.w3.org/1999/xlink" x="0px" y="0px"
	 viewBox="0 0 512 512" style="enable-background:new 0 0 512 512;" xml:space="preserve">
<g>
	<g>
		<path d="M120.15,270c-8.354,0-15.15,6.796-15.15,15.15s6.796,15.15,15.15,15.15S135,293.503,135,285.15
			C135,276.797,128.503,270,120.15,270z"/>
	</g>
</g>
<g>
	<g>
		<path d="M257,0c-41.355,0-75,33.645-75,75s33.645,75,75,75s75-33.645,75-75S298.355,0,257,0z M257,120c-24.813,0-45-20.187-45-45
			s20.187-45,45-45s45,20.187,45,45S281.813,120,257,120z"/>
	</g>
</g>
<g>
	<g>
		<path d="M317,210H197c-8.284,0-15,6.716-15,15s6.716,15,15,15h120c8.284,0,15-6.716,15-15S325.284,210,317,210z"/>
	</g>
</g>
<g>
	<g>
		<path d="M494.426,227.575c-5.857-5.86-15.355-5.86-21.213-0.001c-5.858,5.858-5.858,15.355,0,21.213
			c5.666,5.667,8.787,13.2,8.787,21.213c0,16.542-13.458,30-30,30h-0.689C443.707,216.023,372.925,150,287,150h-30h-45
			c-9.544,0-20.481,1.082-31.06,3.03C161.073,131.929,133.882,120,105,120c-8.284,0-15,6.716-15,15v67.519
			C72.038,221.676,58.897,244.837,51.74,270H45c-24.813,0-45,20.187-45,45v31c0,24.813,20.187,44.9,45,44.9
			c5.141,0,12.307,0.013,18.005,0.045c10.444,20.546,24.993,39.099,41.929,53.257C104.999,464.091,105,496.63,105,497
			c0,8.284,6.716,15,15,15h60c8.284,0,15-6.716,15-15v-15.778c5.669,0.505,11.483,0.778,17,0.778h75v15c0,8.284,6.716,15,15,15h60
			c8.284,0,15-6.716,15-15c0-0.219,0-19.73,0.05-41.733c21.25-13.947,39.213-33.073,52.28-55.752
			c12.314-21.371,19.789-45.146,21.978-69.514H452c33.084,0,60-26.916,60-60C512,253.975,505.759,238.907,494.426,227.575z
			 M354.553,433.912c-4.618,2.675-7.467,7.602-7.482,12.938c-0.036,12.924-0.054,25.719-0.063,35.15H317c0-14.061,0-5.523,0-45
			c0-8.284-6.716-15-15-15s-15,6.716-15,15v15h-75c-5.56,0-11.438-0.323-17-0.909V437c0-8.284-6.716-15-15-15s-15,6.716-15,15
			c0,26.509,0,28.107,0,45h-30.006c-0.009-13.917-0.031-34.093-0.089-45.14c-0.025-4.686-2.238-9.09-5.982-11.907
			c-17.902-13.469-33.042-32.935-42.631-54.81c-2.298-5.242-7.378-8.72-13.096-8.965C69.224,361.009,49.011,361,45,361
			c-8.271,0-15-6.729-15-15v-31c0-8.271,6.729-15,15-15h17.962c0.017,0,0.033,0.003,0.05,0.003c0.024,0,0.047-0.003,0.071-0.003
			c7.941,0,13.545-5.041,15.106-11.45c0.593-2.436,1.816-7.452,2.1-9.246c6.235-22.657,18.407-43.387,35.249-60.014
			c2.855-2.818,4.462-6.663,4.462-10.675v-57.072c16.983,3.542,32.373,13.054,43.603,27.275c3.617,4.581,9.563,6.647,15.241,5.297
			C189.85,181.5,201.935,180,212,180h75c74.439,0,135,60.561,135,135C422,363.504,395.525,410.18,354.553,433.912z"/>
	</g>
</g>
<g>
</g>
<g>
</g>
<g>
</g>
<g>
</g>
<g>
</g>
<g>
</g>
<g>
</g>
<g>
</g>
<g>
</g>
<g>
</g>
<g>
</g>
<g>
</g>
<g>
</g>
<g>
</g>
<g>
</g>
</svg>
